<svg width="114" height="24" viewBox="0 0 114 24" fill="none" xmlns="http://www.w3.org/2000/svg">
<g clip-path="url(#clip0_242_2846)">
<path d="M31.6846 18.9414L33.7348 17.9184H33.8669C34.2317 20.3347 35.8228 21.9854 38.6718 21.9854C40.9233 21.9854 42.4452 20.7929 42.4452 18.91C42.4452 17.2908 41.3195 16.4623 39.6654 16.0669L36.3511 15.2699C34.2631 14.7427 32.2443 13.751 32.2443 10.8703C32.2443 8.22803 34.6656 6.17573 38.1057 6.17573C41.5459 6.17573 43.7345 7.86402 44.4011 10.6067L42.2817 11.4351H42.1496C41.7849 9.32008 40.2629 8.12761 38.112 8.12761C35.9612 8.12761 34.6342 9.38284 34.6342 10.8075C34.6342 12.2322 35.6907 12.9226 37.0869 13.2552L40.3006 14.046C42.6842 14.6736 44.8414 15.6339 44.8414 18.9038C44.8414 21.9477 42.3257 23.9937 38.678 23.9937C34.37 23.9937 32.15 21.6464 31.6909 18.9351" fill="#131820"/>
<path d="M60.2117 13.3557C60.0104 10.1799 58.0608 8.09624 54.9791 8.09624C51.8975 8.09624 49.8095 10.2113 49.2812 13.3557H60.2117ZM54.9791 6.18201C61.5387 6.18201 62.9286 11.9372 62.5324 15.1757H49.1492C49.2183 19.4059 51.6019 21.9854 55.1112 21.9854C57.891 21.9854 59.5513 20.7992 60.2809 18.1883L62.5638 18.9791C61.6016 22.0544 58.9539 24.0063 55.0798 24.0063C50.2749 24.0063 46.8662 20.3347 46.8662 15.0816C46.8662 9.82845 50.1806 6.18829 54.9791 6.18829" fill="#131820"/>
<path d="M65.2807 6.51464H67.5008V9.42678C68.5951 7.76987 70.6453 6.18828 73.2616 6.18828C77.0728 6.18828 79.6198 8.4728 79.6198 12.1757V23.6799H77.3684V12.6402C77.3684 9.89749 75.6766 8.24058 72.9597 8.24058C70.2428 8.24058 68.1926 10.3933 67.4945 12.9665V23.6799H65.2744V6.51464H65.2807Z" fill="#131820"/>
<path d="M84.1739 19.1423V8.46025H80.9287V6.50837C84.1739 6.50837 84.2431 6.37657 84.2431 2.54184H86.3939V6.50837H91.2303V8.46025H86.3939V19.136C86.3939 21.1192 87.5511 21.9477 88.8467 21.9477C89.5448 21.9477 90.2051 21.8787 90.9347 21.3828V23.4351C90.4693 23.7678 89.5448 24 88.7146 24C86.0669 24 84.1739 22.4435 84.1739 19.1423Z" fill="#131820"/>
<path d="M94.3178 6.51464H96.5379V23.6736H94.3178V6.51464ZM93.8147 1.92678C93.6323 0.903765 94.3807 0 95.4121 0C96.3429 0 97.0662 0.728033 97.0662 1.61925C97.0662 2.5795 96.2863 3.32008 95.3115 3.26987C94.5694 3.23222 93.9405 2.65481 93.8147 1.92678Z" fill="#131820"/>
<path d="M105.682 22.0858C108.896 22.0858 110.783 19.7385 111.38 17.4603V14.8494L105.682 15.7782C103.393 16.1423 102.003 17.1339 102.003 19.0481C102.003 20.9623 103.525 22.0921 105.682 22.0921M99.6508 19.1046C99.6508 16.1987 101.839 14.4414 105.38 13.8828L111.374 12.9603V12.364C111.374 9.45189 109.518 8.13389 107.066 8.13389C104.217 8.13389 102.726 9.62134 102.198 11.7678L99.9779 11.0398C100.777 8.46025 103.028 6.18201 107.066 6.18201C110.808 6.18201 113.594 8.26569 113.594 12.2008V23.6736H111.374V20.4665C110.179 22.7134 107.927 24.0063 105.443 24.0063C102.066 24.0063 99.6445 22.0858 99.6445 19.1109" fill="#131820"/>
<path d="M11.9807 11.9937H0V23.9498H11.9807V11.9937Z" fill="#131820"/>
<path d="M24.9549 23.9435H12.9805L24.9549 11.9937V23.9435Z" fill="#131820"/>
<path d="M24.9549 5.9749C24.9549 9.27615 22.2758 11.9498 18.9677 11.9498C15.6596 11.9498 12.9805 9.27615 12.9805 5.9749C12.9805 2.67364 15.6596 0 18.9677 0C22.2758 0 24.9549 2.67364 24.9549 5.9749Z" fill="#131820"/>
</g>
<defs>
<clipPath id="clip0_242_2846">
<rect width="113.6" height="24" fill="#131820"/>
</clipPath>
</defs>
</svg>
