<?xml version="1.0" encoding="utf-8"?>
<!-- Generator: Adobe Illustrator 25.1.0, SVG Export Plug-In . SVG Version: 6.00 Build 0)  -->
<svg version="1.1" id="Layer_1" xmlns="http://www.w3.org/2000/svg" xmlns:xlink="http://www.w3.org/1999/xlink" x="0px" y="0px"
	 viewBox="0 0 552.1 167.2" style="enable-background:new 0 0 552.1 167.2;" xml:space="preserve">
<style type="text/css">
	.st0{fill:#131820;}
</style>
<g>
	<path class="st0" d="M171.9,70c5.1,0,7.6-2.5,7.6-7.6v-7.2c0-5.6-2.6-6.6-8-8l-10.4-2.8c-1-0.3-1.2-0.4-1.2-1.1v-3c0-0.8,0.2-1,1-1
		h6.4c0.8,0,1,0.2,1,1v3.2h10.5v-5c0-5.1-2.5-7.6-7.6-7.6H157c-5.1,0-7.6,2.5-7.6,7.6v6.8c0,5.6,2.6,6.5,8,8l10.4,2.8
		c0.9,0.2,1.2,0.4,1.2,1v3.4c0,0.8-0.2,1-1,1h-7.2c-0.8,0-1-0.2-1-1v-3.6h-10.5v5.3c0,5.1,2.5,7.6,7.6,7.6H171.9z"/>
	<path class="st0" d="M211.9,63.2V46.7c0-4.8-2.1-7.1-8.4-7.1c-5,0-7.4,2.1-8.9,3.8v-3.5h-9.9v39h9.9V66.5c1.5,1.7,3.8,3.8,8.9,3.8
		C209.8,70.4,211.9,68.1,211.9,63.2z M202,61.3c0,0.8-0.4,1.1-1.8,1.1c-1.8,0-3.6-0.5-5.5-1.6V49.1c2-1.1,3.7-1.6,5.5-1.6
		c1.4,0,1.8,0.3,1.8,1.1V61.3z"/>
	<path class="st0" d="M235.5,39.9h-11.9c-4.8,0-7.1,2.3-7.1,7.1v15.8c0,4.8,2.3,7.1,7.1,7.1h11.9c4.8,0,7.1-2.3,7.1-7.1v-2.8h-9.8
		v1.5c0,0.8-0.3,1.1-1.1,1.1h-4.3c-0.8,0-1.1-0.3-1.1-1.1v-4.2h16.3V47.1C242.6,42.2,240.3,39.9,235.5,39.9z M232.8,51.9h-6.5v-3.5
		c0-0.8,0.3-1.1,1.1-1.1h4.3c0.8,0,1.1,0.3,1.1,1.1V51.9z"/>
	<path class="st0" d="M264.5,49.1v21h9.9V46.7c0-4.8-2.3-7.1-8.2-7.1c-4.8,0-7.1,2.1-8.6,3.8v-3.5h-9.9V70h9.9V49.5
		c2-1.1,3.5-1.6,5.5-1.6C264.2,48,264.5,48.2,264.5,49.1z"/>
	<path class="st0" d="M306.8,70V46.7c0-4.8-2.3-7.1-8.2-7.1c-4.8,0-7.1,2.1-8.6,3.8v-3.5H280V70h9.9V49.5c2-1.1,3.5-1.6,5.5-1.6
		c1.2,0,1.5,0.3,1.5,1.1v21H306.8z"/>
	<path class="st0" d="M335.2,31h-13.8l-11.8,39h10.7l2.1-8h11.5l2.1,8h11.1L335.2,31z M324.5,53.6l3.6-14.1l3.6,14.1H324.5z"/>
	<path class="st0" d="M370.2,48.6v-8.6h-3.1c-3.6,0-5.8,2.1-7.1,3.8v-3.8h-9.9V70h9.9V50.1c1.8-1.2,4-1.6,6.5-1.6H370.2z"/>
	<path class="st0" d="M409,39.6c-4.7,0-7.2,2.3-8.6,4.3c-0.8-2.9-3.3-4.3-7.9-4.3c-4.8,0-6.8,2.1-8.3,3.8v-3.5h-9.9V70h9.9V49.5
		c2-1.1,3.4-1.6,5.4-1.6c0.9,0,1.2,0.3,1.2,1.1v21h9.9V49.5c2-1.1,3.4-1.6,5.4-1.6c0.9,0,1.2,0.3,1.2,1.1v21h9.9V46.7
		C417.2,41.9,415,39.6,409,39.6z"/>
	<path class="st0" d="M448.3,62.9v-2.8h-9.8v1.5c0,0.8-0.3,1.1-1.1,1.1h-4.3c-0.8,0-1.1-0.3-1.1-1.1v-4.2h16.3V47.1
		c0-4.8-2.3-7.1-7.1-7.1h-11.9c-4.8,0-7.1,2.3-7.1,7.1v15.8c0,4.8,2.3,7.1,7.1,7.1h11.9C446.1,70,448.3,67.7,448.3,62.9z M432,48.4
		c0-0.8,0.3-1.1,1.1-1.1h4.3c0.8,0,1.1,0.3,1.1,1.1v3.5H432V48.4z"/>
	<path class="st0" d="M463.3,43.8v-3.8h-9.9V70h9.9V50.1c1.8-1.2,4-1.6,6.5-1.6h3.7v-8.6h-3.1C466.7,39.9,464.6,42,463.3,43.8z"/>
	<rect x="477.2" y="29.3" class="st0" width="10.4" height="7.6"/>
	<rect x="477.4" y="39.9" class="st0" width="9.9" height="30.1"/>
	<path class="st0" d="M511.6,39.6c-4.8,0-7.1,2.1-8.6,3.8v-3.5H493V70h9.9V49.5c2-1.1,3.5-1.6,5.5-1.6c1.2,0,1.5,0.3,1.5,1.1v21h9.9
		V46.7C519.8,41.9,517.5,39.6,511.6,39.6z"/>
	<path class="st0" d="M542.2,39.9v3.5c-1.5-1.7-3.8-3.8-8.9-3.8c-6.4,0-8.4,2.3-8.4,7.1l-0.1,14.8c0.1,4.8,2.2,7.1,8.5,7.1
		c5,0,7.4-2.1,8.9-3.8v5.4c0,0.8-0.3,1.1-1.1,1.1h-12.1v7.6h16.1c4.8,0,7.1-2.3,7.1-7.1V39.9H542.2z M542.2,59.2
		c-2,1.1-3.7,1.6-5.5,1.6c-1.4,0-1.8-0.3-1.8-1.1v-11c0-0.8,0.4-1.1,1.8-1.1c1.8,0,3.6,0.5,5.5,1.6V59.2z"/>
	<path class="st0" d="M107.1,110.5l16.8-4.6l1.2-0.3l0-4.3l0,0l-18.9-19.6l0,0l-3.2-3.3l0,0l-1.7-1.8l0.5-0.1l4.5-1.3l18.9-5.2v-4.3
		L103,71.6l-4.5,1.3L98,73l0,0l-1.3-1.4L88.3,63L85,59.7l-2.1-2.2l-3.3-3.4L74.7,49l3.7-1l4.5-1.3L125.2,35v-2.1v-2.1L79.7,43.4
		l-4.5,1.3l-3.7,1L57,30.7h-5.8l15.7,16.2L64,47.7l-13.8,3.8l-0.2,0.1L0,0v26.6l29.7,30.6l-2.8,0.8L19,60.2l-4.5,1.3h0l-3.7,1l0,0
		v0.1v4.3v1.6l1.5,1.5l2.3,2.3h0l1,1l2.3,2.3l0.8,0.8l3.3,3.4l11,11.4l-13.4,3.7l-4.5,1.3l-4.1,1.1v4.3l7.4-2.1l4.5-1.3L36,94.6
		l1.8,1.8l3.3,3.4l18.9,19.6l-3.5,1l-19.1,5.3l-4.5,1.3L10.7,133v3.3v1l25.4-7l4.5-1.3l19.1-5.3l3.5-1l0,0l14.1,14.6H83l-15.3-15.8
		l0,0l0,0l10.8-3l4.5-1.3l3.7-1l49.2,51v-26.8l-23.4-24.3L107.1,110.5z M96.7,77.7L96.7,77.7l1.7,1.8l0,0l3.2,3.3l0,0l18.9,19.6
		l-16.8,4.7l-24-24.8l3.5-1L96.7,77.7z M53.5,54.9l13.8-3.8l2.9-0.8l4.9,5.1l3.3,3.4l2.1,2.2l3.3,3.4l8.3,8.6l1.3,1.4l0,0l-13.4,3.7
		l-3.5,1L53.3,55L53.5,54.9z M37.8,89.8l-0.5,0.1l-11-11.4l-3.3-3.4l-0.8-0.8L20,72l-1-1l-2.3-2.3l-2.7-2.7l0,0l3.7-1l4.5-1.3
		l7.9-2.2l2.8-0.8l23.3,24L43,88.4l-0.7,0.2h0l-3.9,1.1L37.8,89.8z M79.8,113.8l-4.5,1.3l-10.8,3l0,0L45.6,98.5l-3.3-3.4h0l-1.8-1.8
		l0.5-0.1l0.7-0.2l3.9-1.1l0.7-0.2l13.2-3.7l11.7,12.1l12.2,12.6L79.8,113.8z"/>
	<polygon class="st0" points="152.5,95.8 157.6,95.8 157.6,110.7 159.3,110.7 159.3,95.8 164.3,95.8 164.3,94.3 152.5,94.3 	"/>
	<path class="st0" d="M179.8,94.3h-5.2c-2.2,0-3.3,1.1-3.3,3.3v9.9c0,2.2,1.1,3.3,3.3,3.3h5.2c2.2,0,3.3-1.1,3.3-3.3v-9.9
		C183.1,95.3,182,94.3,179.8,94.3z M181.4,107.5c0,1.2-0.5,1.7-1.7,1.7h-5c-1.2,0-1.7-0.5-1.7-1.7v-10c0-1.2,0.5-1.7,1.7-1.7h5
		c1.2,0,1.7,0.5,1.7,1.7V107.5z"/>
	<polygon class="st0" points="190.1,95.8 195.1,95.8 195.1,110.7 196.8,110.7 196.8,95.8 201.9,95.8 201.9,94.3 190.1,94.3 	"/>
	<path class="st0" d="M211.8,94.3l-6,16.4h1.7l1.8-4.9h6.9l1.8,4.9h1.8l-6-16.4H211.8z M209.8,104.2l2.9-8.1l2.9,8.1H209.8z"/>
	<polygon class="st0" points="229.1,94.3 227.4,94.3 227.4,110.7 237.2,110.7 237.2,109.2 229.1,109.2 	"/>
	<polygon class="st0" points="245.1,110.7 255.5,110.7 255.5,109.2 246.8,109.2 246.8,103.1 254.2,103.1 254.2,101.5 246.8,101.5 
		246.8,95.8 255.5,95.8 255.5,94.3 245.1,94.3 	"/>
	<polygon class="st0" points="274.3,108.2 265.6,94.3 263.8,94.3 263.8,110.7 265.4,110.7 265.4,96.6 274.2,110.7 275.9,110.7 
		275.9,94.3 274.3,94.3 	"/>
	<polygon class="st0" points="283.6,95.8 288.6,95.8 288.6,110.7 290.3,110.7 290.3,95.8 295.4,95.8 295.4,94.3 283.6,94.3 	"/>
	<path class="st0" d="M314.4,100.6v-3.1c0-2.2-1.1-3.3-3.3-3.3h-8v16.4h1.7v-6.8h4.6l3.7,6.8h1.9l-3.7-6.8
		C313.4,103.9,314.4,102.8,314.4,100.6z M304.8,102.4v-6.6h6.2c1.2,0,1.7,0.5,1.7,1.7v3.2c0,1.2-0.5,1.7-1.7,1.7H304.8z"/>
	<polygon class="st0" points="323.2,110.7 333.6,110.7 333.6,109.2 324.9,109.2 324.9,103.1 332.2,103.1 332.2,101.5 324.9,101.5 
		324.9,95.8 333.6,95.8 333.6,94.3 323.2,94.3 	"/>
	<path class="st0" d="M349.9,94.3h-8v16.4h1.7v-6.4h6.3c2.1,0,3.3-1.2,3.3-3.3v-3.5C353.1,95.4,352,94.3,349.9,94.3z M351.5,101.1
		c0,1.1-0.6,1.7-1.7,1.7h-6.2v-7h6.2c1.1,0,1.7,0.6,1.7,1.7V101.1z"/>
	<path class="st0" d="M372.7,100.6v-3.1c0-2.2-1.1-3.3-3.3-3.3h-8v16.4h1.7v-6.8h4.6l3.7,6.8h1.9l-3.7-6.8
		C371.6,103.9,372.7,102.8,372.7,100.6z M363.1,102.4v-6.6h6.2c1.2,0,1.7,0.5,1.7,1.7v3.2c0,1.2-0.5,1.7-1.7,1.7H363.1z"/>
	<polygon class="st0" points="381.5,110.7 391.9,110.7 391.9,109.2 383.2,109.2 383.2,103.1 390.5,103.1 390.5,101.5 383.2,101.5 
		383.2,95.8 391.9,95.8 391.9,94.3 381.5,94.3 	"/>
	<polygon class="st0" points="410.6,108.2 402,94.3 400.1,94.3 400.1,110.7 401.7,110.7 401.7,96.6 410.5,110.7 412.2,110.7 
		412.2,94.3 410.6,94.3 	"/>
	<path class="st0" d="M431.2,94.6l0.8-1.7h-1.6l-0.6,1.4h-0.3h-5.2c-2.2,0-3.3,1.1-3.3,3.3v9.9c0,1.5,0.5,2.5,1.5,3l-0.8,1.7h1.6
		l0.6-1.4h0.4h5.2c2.2,0,3.3-1.1,3.3-3.3v-9.9C432.8,96,432.3,95,431.2,94.6z M423.2,108.9c-0.4-0.3-0.5-0.7-0.5-1.4v-10
		c0-1.2,0.5-1.7,1.7-1.7h4.7L423.2,108.9z M431.1,107.5c0,1.2-0.5,1.7-1.7,1.7h-4.8l5.9-13.1c0.4,0.3,0.6,0.7,0.6,1.5V107.5z"/>
	<path class="st0" d="M452.8,100.6v-3.1c0-2.2-1.1-3.3-3.3-3.3h-8v16.4h1.7v-6.8h4.6l3.7,6.8h1.9l-3.7-6.8
		C451.8,103.9,452.8,102.8,452.8,100.6z M443.2,102.4v-6.6h6.2c1.2,0,1.7,0.5,1.7,1.7v3.2c0,1.2-0.5,1.7-1.7,1.7H443.2z"/>
</g>
</svg>
